<svg width="110" height="128" viewBox="0 0 110 128" fill="none" xmlns="http://www.w3.org/2000/svg">
<path d="M0.561225 96.3699L0 94.3353H16.6497L17.2109 95.6301C21.5136 108.763 41.7177 112.647 55.9354 112.647C72.398 112.647 93.5374 107.283 93.5374 90.2659C93.5374 73.2486 71.0884 70.104 55.1871 70.104C31.0544 70.104 2.43197 66.9595 2.43197 36.9942C2.43197 9.43353 26.9388 0 51.8197 0C72.9592 0 102.704 6.84393 106.82 31.0752L107.381 33.2948H90.7313L90.1701 32C86.2415 19.052 67.1599 14.9827 53.3163 14.9827C37.7891 14.9827 18.8946 20.1619 18.8946 35.8844C18.8946 51.7919 38.7245 54.9364 54.0646 54.9364C78.9456 54.9364 110 58.0809 110 89.341C110 118.197 83.8095 128 57.8061 128C36.6667 128 5.23809 120.971 0.561225 96.3699Z" fill="#FFBF00"/>
</svg>
