<svg width="134" height="50" viewBox="0 0 134 50" fill="none" xmlns="http://www.w3.org/2000/svg">
<path d="M13.0019 30.6147V30.832H10.5244L9.54737 28.8793H4.06778L3.0907 30.832H0.613281V30.6147L6.69154 19.4648H6.92361L13.0019 30.6147ZM8.557 26.9193L6.80831 23.4574L5.05815 26.9119L8.557 26.9193Z" fill="#111111"/>
<path d="M24.4728 24.171V29.7689C23.3657 30.4976 21.4559 30.978 19.7427 30.978C16.0117 30.978 13.5195 28.6898 13.5195 25.2649C13.5195 21.8651 16.0117 19.6094 19.7427 19.6094C21.4632 19.6094 23.2563 20.1046 24.3058 20.8629V23.1806C23.3139 22.2775 21.6525 21.6788 20.1802 21.6788C17.6303 21.6788 15.9245 23.1215 15.9245 25.2797C15.9245 27.4659 17.6008 28.9086 20.1078 28.9086C20.8092 28.9003 21.5041 28.7723 22.1624 28.5302V26.1533H19.073V24.171H24.4728Z" fill="#111111"/>
<path d="M37.6907 30.6145V30.8318H35.2014L33.03 26.8408H29.5725V30.8318H27.2695V19.7559H33.3034C35.7232 19.7559 37.3256 21.169 37.3256 23.3035C37.3434 23.971 37.1578 24.6282 36.7935 25.1879C36.4292 25.7476 35.9033 26.1833 35.2857 26.4372L37.6907 30.6145ZM29.5725 24.8718H33.1867C34.2362 24.8718 34.9206 24.2303 34.9206 23.2976C34.9206 22.3648 34.2214 21.7381 33.1867 21.7381H29.5725V24.8718Z" fill="#111111"/>
<path d="M39.9961 19.7559H42.2991V30.8318H39.9961V19.7559Z" fill="#111111"/>
<path d="M44.7461 25.2649C44.7461 21.8651 47.1112 19.6094 50.6337 19.6094C52.1651 19.6094 53.7674 20.0765 54.7149 20.8052V23.1082C53.7128 22.2074 52.4185 21.6997 51.0712 21.6788C48.7253 21.6788 47.1511 23.1215 47.1511 25.2797C47.1511 27.4659 48.7253 28.9086 51.1008 28.9086C52.369 28.9086 53.8842 28.2818 54.8612 27.3639V29.695C53.8546 30.4681 52.1651 30.978 50.6337 30.978C47.092 30.978 44.7461 28.6898 44.7461 25.2649Z" fill="#111111"/>
<path d="M56.6367 25.2944C56.6367 21.8828 59.0565 19.6094 62.6706 19.6094C66.2848 19.6094 68.6898 21.8828 68.6898 25.2944C68.6898 28.7061 66.2848 30.978 62.6706 30.978C59.0565 30.978 56.6367 28.7046 56.6367 25.2944ZM66.2848 25.2944C66.2848 23.1215 64.8421 21.6788 62.6706 21.6788C60.4992 21.6788 59.0417 23.1215 59.0417 25.2944C59.0417 27.4674 60.4844 28.9086 62.6706 28.9086C64.8569 28.9086 66.2877 27.4659 66.2877 25.2944H66.2848Z" fill="#111111"/>
<path d="M81.6073 19.7559V19.9746L75.5291 31.1245H75.297L69.2188 19.9746V19.7559H71.6962L75.4108 26.8393L79.1284 19.7559H81.6073Z" fill="#111111"/>
<path d="M92.7414 28.8526V30.8333H83.1953V19.7559H92.5802V21.7381H85.4968V24.1712H92.1486V26.1534H85.4968V28.8526H92.7414Z" fill="#111111"/>
<path d="M105.656 30.6145V30.8318H103.163L100.992 26.8408H97.5374V30.8318H95.2344V19.7559H101.268C103.688 19.7559 105.29 21.169 105.29 23.3035C105.308 23.971 105.123 24.6282 104.758 25.1879C104.394 25.7476 103.868 26.1833 103.251 26.4372L105.656 30.6145ZM97.5374 24.8718H101.152C102.201 24.8718 102.885 24.2303 102.885 23.2976C102.885 22.3648 102.186 21.7381 101.152 21.7381H97.5374V24.8718Z" fill="#111111"/>
<path d="M109.378 20.7513C109.378 21.4549 108.88 21.9339 108.131 21.9339C107.381 21.9339 106.879 21.4623 106.879 20.7513C106.879 20.0403 107.377 19.5762 108.131 19.5762C108.885 19.5762 109.378 20.0433 109.378 20.7513ZM109.177 20.7513C109.177 20.1512 108.762 19.7462 108.131 19.7462C107.5 19.7462 107.078 20.1512 107.078 20.7513C107.078 21.3515 107.495 21.758 108.131 21.758C108.767 21.758 109.177 21.3515 109.177 20.7513ZM108.469 20.8444L108.752 21.3308V21.3515H108.52L108.262 20.8799H107.819V21.3515H107.608V20.1054H108.28C108.336 20.0991 108.392 20.1047 108.446 20.1217C108.499 20.1386 108.548 20.1666 108.59 20.2039C108.632 20.2411 108.665 20.2867 108.688 20.3377C108.711 20.3887 108.723 20.444 108.724 20.5C108.723 20.577 108.698 20.6517 108.653 20.7136C108.607 20.7755 108.543 20.8213 108.469 20.8444ZM107.813 20.7099H108.257C108.287 20.7135 108.317 20.7106 108.346 20.7015C108.375 20.6925 108.401 20.6774 108.424 20.6573C108.447 20.6372 108.465 20.6125 108.477 20.5849C108.49 20.5573 108.496 20.5273 108.496 20.4971C108.496 20.4668 108.49 20.4369 108.477 20.4093C108.465 20.3817 108.447 20.357 108.424 20.3369C108.401 20.3168 108.375 20.3017 108.346 20.2926C108.317 20.2835 108.287 20.2807 108.257 20.2842H107.813V20.7099Z" fill="#111111"/>
<path d="M121.973 19.4245C120.743 19.2017 119.583 19.0182 118.528 18.877C118.391 18.9085 118.253 18.941 118.114 18.9745C116.869 19.2711 115.642 19.6357 114.438 20.0668C114.589 20.5393 114.754 21.0862 114.928 21.6818C116.477 21.0334 118.065 20.4792 119.682 20.0223C120.469 19.7966 121.24 19.5964 121.973 19.4245ZM119.883 20.5C120.471 20.6333 121.069 20.776 121.672 20.9303C122.352 21.1046 123.015 21.2847 123.661 21.4706C124.843 21.0731 125.968 20.7381 126.997 20.4738C126.345 20.3204 125.676 20.1697 124.989 20.0216C124.336 19.8818 123.695 19.7512 123.067 19.6299C122.125 19.8519 121.126 20.1214 120.095 20.4352L119.883 20.5ZM119.228 20.7075C117.824 21.1556 116.445 21.6775 115.096 22.2709C115.315 23.0522 115.546 23.9107 115.778 24.8194C117.388 23.9667 119.045 23.2065 120.742 22.5425C120.213 21.8762 119.704 21.2595 119.227 20.7075H119.228ZM128.208 20.7702C126.372 21.242 124.168 21.9774 121.845 22.924C119.619 23.8284 117.609 24.7997 116.001 25.7114C116.457 27.558 116.828 29.2458 117.07 30.5369C118.895 29.1861 121.214 27.7094 123.81 26.2859C127.305 24.3701 130.617 22.9299 133.085 22.1748C131.736 21.7167 130.071 21.2362 128.208 20.7702Z" fill="#111111"/>
</svg>
