<svg width="83" height="50" viewBox="0 0 83 50" fill="none" xmlns="http://www.w3.org/2000/svg">
<path d="M31.4236 21.7109C29.9728 21.7109 29.0519 22.6553 28.7656 23.9074H33.9278C33.7526 22.525 32.7847 21.7109 31.4236 21.7109Z" fill="#111111"/>
<path d="M17.6238 22.2598C15.7778 22.2598 14.6133 23.5332 14.6133 25.3131C14.6133 27.0715 15.7991 28.3877 17.6238 28.3877C19.4485 28.3877 20.6771 27.1356 20.6771 25.3131C20.6771 23.4905 19.4464 22.2598 17.6238 22.2598Z" fill="#111111"/>
<path d="M54.8798 19.3389C52.1085 19.3389 49.9505 20.4457 49.598 23.3195C49.5723 23.3217 49.6151 23.3195 49.5894 23.3195C48.7177 10.2966 38.4446 0 25.2016 0C14.7362 0 5.77719 6.43349 2.05085 15.5592H10.9244L10.4629 18.5462H3.49951V21.7106H9.80479L9.32191 24.5887H3.49951V26.4348C3.49951 27.5544 3.98239 28.0821 4.90543 28.0821H10.8582L10.3753 31.0692H3.78368C3.46318 31.0692 3.15764 31.0393 2.86705 30.988V30.9901C2.86705 30.9901 1.72608 30.8662 1.01884 29.9474C1.00175 29.9261 0.713299 29.5842 0.572279 29.0223C0.535956 28.8748 0.531683 28.8663 0.503906 28.7509C0.550913 29.1227 0.629969 29.6227 0.666293 29.8064C0.867139 30.8491 1.1214 31.7315 1.1449 31.7935C4.10632 42.2973 13.7512 50 25.2016 50C36.9147 50 46.8096 41.9426 49.521 31.0713H46.1601V24.9647C46.1601 23.3174 45.5234 22.2619 43.8974 22.2619C42.2714 22.2619 41.6346 23.3174 41.6346 24.9647V31.0713H38.2737V24.1293C38.2737 20.8111 40.6902 19.3411 43.8974 19.3411C47.1045 19.3411 49.521 20.8132 49.521 24.1293L49.5189 31.0713H52.9012V24.9647C52.9012 23.3174 53.3414 22.2619 54.9439 22.2619C55.4503 22.2619 56.0635 22.4157 56.2836 22.5247L56.9203 19.5804C56.5507 19.5355 55.6063 19.3389 54.8798 19.3389ZM24.0606 24.6336C24.0606 28.83 21.5778 31.2893 17.469 31.2893C13.6679 31.2893 11.0975 28.7402 11.0975 25.313C11.0975 21.732 13.5354 19.3368 17.1827 19.3368C18.8514 19.3368 20.0821 19.9949 20.6975 20.6551V15.5592H24.0585V24.6336H24.0606ZM32.541 28.7637C33.5303 28.7637 34.4448 28.4774 35.3037 28.0821L35.0238 30.7401C34.058 31.1354 32.8935 31.2893 31.7291 31.2893C27.8617 31.2893 25.1375 29.0265 25.1375 25.1827C25.1375 21.8431 27.5754 19.3389 31.3103 19.3389C35.5281 19.3389 37.6369 22.0183 37.5493 26.1485H28.851C29.18 28.0394 30.9812 28.7637 32.541 28.7637Z" fill="#111111"/>
<path d="M62.5048 19.3379C58.77 19.3379 56.332 21.8421 56.332 25.1817C56.332 29.0255 59.0563 31.2882 62.9236 31.2882C64.0881 31.2882 65.2526 31.1344 66.2184 30.7391L66.4983 28.0811C65.6415 28.4764 64.7248 28.7627 63.7377 28.7627C62.1779 28.7627 60.3767 28.0384 60.0477 26.1474H68.7482C68.8315 22.0173 66.7226 19.3379 62.5048 19.3379ZM59.9558 23.9082C60.2421 22.6561 61.1652 21.7117 62.6138 21.7117C63.977 21.7117 64.9428 22.5237 65.118 23.9082H59.9558Z" fill="#111111"/>
<path d="M78.7172 15.5586V20.6545C78.1018 19.9964 76.8711 19.3362 75.2024 19.3362C71.5551 19.3362 69.1172 21.7314 69.1172 25.3124C69.1172 28.7397 71.6876 31.2887 75.4887 31.2887C79.5975 31.2887 82.0803 28.8273 82.0803 24.633V15.5586H78.7172ZM75.6404 28.3892C73.8178 28.3892 72.6299 27.0709 72.6299 25.3146C72.6299 23.5347 73.7943 22.2613 75.6404 22.2613C77.463 22.2613 78.6937 23.492 78.6937 25.3146C78.6958 27.1372 77.4651 28.3892 75.6404 28.3892Z" fill="#111111"/>
</svg>
