<svg width="110" height="50" viewBox="0 0 110 50" fill="none" xmlns="http://www.w3.org/2000/svg">
<path d="M15.6011 15.7656C13.6769 15.7656 11.9527 16.6652 10.9532 18.0396C9.92863 16.6652 8.2294 15.7656 6.30526 15.7656C3.18167 15.7656 0.632812 18.1396 0.632812 21.0632C0.632812 25.8611 10.9782 34.2323 10.9782 34.2323C10.9782 34.2323 21.3235 26.011 21.3235 21.0632C21.2735 18.1396 18.7247 15.7656 15.6011 15.7656Z" stroke="#111111" stroke-width="0.0543006"/>
<path d="M15.6016 15.7656C18.7249 15.7659 21.2733 18.1399 21.3232 21.0635C21.3229 25.9996 11.027 34.1939 10.9785 34.2324C10.9785 34.2324 0.633144 25.8614 0.632812 21.0635C0.632812 18.1398 3.18207 15.7656 6.30566 15.7656C8.22963 15.7658 9.92866 16.6658 10.9531 18.04C11.9527 16.6657 13.6774 15.7656 15.6016 15.7656ZM9.17969 19.6895V22.5635H6.28125V26.1113H9.17969V29.0107H12.7031V26.1113H15.6025V22.5635H12.7031V19.6895H9.17969Z" fill="#111111"/>
<path d="M24.5977 31.5838C25.4973 31.5838 26.097 31.4338 26.3719 31.134C26.6467 30.8341 26.7717 30.4093 26.7717 29.8346V19.3643C26.7717 18.7645 26.6217 18.3897 26.3219 18.1898C26.022 18.0149 25.4723 17.8899 24.6726 17.815V17.2402H30.6449L35.3178 27.4606H35.5178L40.1657 17.2402H46.138V17.815C45.3383 17.865 44.7886 18.0149 44.4887 18.2398C44.1889 18.4647 44.0389 18.9894 44.0389 19.8141V29.5847C44.0389 30.3843 44.1889 30.9341 44.4887 31.159C44.7886 31.4089 45.3383 31.5588 46.138 31.5588V32.1335H38.2665V31.5588C38.9662 31.5338 39.491 31.4339 39.8658 31.2339C40.2156 31.034 40.3906 30.6092 40.3906 29.9595V19.1644H40.2156L34.3933 32.1086H33.7435L27.8712 19.4143L27.7712 19.3893V29.3598C27.7712 30.0845 27.9212 30.6342 28.221 30.9591C28.5209 31.2839 29.1706 31.4838 30.1701 31.5088V32.0836H24.5977V31.5838Z" fill="#111111"/>
<path d="M49.5109 25.9364C49.5359 24.8119 49.6858 23.9373 49.9357 23.3376C50.1856 22.7378 50.6354 22.438 51.3101 22.438C51.9598 22.438 52.3846 22.6879 52.6095 23.2126C52.8344 23.7374 52.9344 24.637 52.9593 25.9114H49.5109V25.9364ZM45.9375 27.0859C45.9375 28.96 46.4873 30.3344 47.5868 31.184C48.6863 32.0336 49.8607 32.4585 51.1102 32.4585C51.9848 32.4585 52.7594 32.3085 53.4341 32.0336C54.4837 31.6088 55.3833 30.8342 56.1579 29.7097L55.5832 29.3848C55.1084 29.8596 54.7086 30.1845 54.3837 30.3844C53.8589 30.7092 53.2842 30.8592 52.6845 30.8592C51.435 30.8592 50.5604 30.2594 50.0606 29.06C49.7858 28.4103 49.6108 27.6606 49.5609 26.761H56.058C56.058 26.5611 56.033 26.2612 55.983 25.8864C55.858 25.0618 55.6581 24.4121 55.3583 23.8873C54.9584 23.2126 54.3837 22.6879 53.659 22.313C52.9094 21.9382 52.1347 21.7383 51.2851 21.7383C49.8108 21.7383 48.5613 22.2131 47.5118 23.1376C46.4623 24.0872 45.9375 25.4116 45.9375 27.0859Z" fill="#111111"/>
<path d="M103.236 25.9364C103.261 24.8119 103.411 23.9373 103.661 23.3376C103.911 22.7378 104.36 22.438 105.035 22.438C105.685 22.438 106.11 22.6879 106.335 23.2126C106.559 23.7374 106.659 24.637 106.684 25.9114H103.236V25.9364ZM99.6875 27.0859C99.6875 28.96 100.237 30.3344 101.337 31.184C102.436 32.0336 103.611 32.4585 104.86 32.4585C105.735 32.4585 106.509 32.3085 107.184 32.0336C108.234 31.6088 109.133 30.8342 109.933 29.7097L109.358 29.3848C108.883 29.8596 108.484 30.1845 108.159 30.3844C107.634 30.7092 107.059 30.8592 106.459 30.8592C105.21 30.8592 104.335 30.2594 103.836 29.06C103.561 28.4103 103.386 27.6606 103.336 26.761H109.833C109.833 26.5611 109.808 26.2612 109.758 25.8864C109.633 25.0618 109.433 24.4121 109.133 23.8873C108.733 23.2126 108.159 22.6879 107.434 22.313C106.684 21.9382 105.91 21.7383 105.06 21.7383C103.586 21.7383 102.336 22.2131 101.287 23.1376C100.212 24.0872 99.6875 25.4116 99.6875 27.0859Z" fill="#111111"/>
<path d="M62.7046 31.2094C61.905 31.2094 61.3552 30.6846 61.0554 29.6601C60.9054 29.0853 60.8305 28.2357 60.8305 27.0862C60.8305 26.0117 60.9054 25.2121 61.0803 24.6123C61.3802 23.5378 61.955 22.9881 62.8046 22.9881C63.3793 22.9881 63.8291 23.163 64.179 23.5128C64.5288 23.8627 64.7037 24.1375 64.7037 24.3125V29.685C64.7037 29.86 64.5038 30.1598 64.104 30.5846C63.6792 31.0095 63.2294 31.2094 62.7046 31.2094ZM57.332 27.3861C57.332 28.9604 57.7568 30.1848 58.6315 31.0844C59.4811 31.984 60.5056 32.4588 61.6551 32.4588C62.3298 32.4588 62.9795 32.3089 63.5542 31.984C63.9291 31.7841 64.3289 31.4592 64.7787 31.0094V32.4588C65.7532 32.2089 66.4279 32.059 66.8278 32.009C67.2276 31.959 68.0772 31.8591 69.4016 31.7341V31.1844C68.8518 31.1344 68.502 31.0344 68.3021 30.8595C68.1272 30.6846 68.0272 30.3847 68.0272 29.9349V17.2656H62.9045V17.8154C63.6292 17.8404 64.104 17.9153 64.3289 18.0653C64.5538 18.1902 64.6787 18.5401 64.6787 19.0898V23.113C64.2289 22.6632 63.8541 22.3633 63.5292 22.1884C63.0545 21.9135 62.4797 21.7636 61.855 21.7636C60.6056 21.7636 59.531 22.2634 58.6315 23.2629C57.7818 24.2625 57.332 25.6369 57.332 27.3861Z" fill="#111111"/>
<path d="M70.6266 31.5842C71.2763 31.5592 71.7261 31.4842 72.0009 31.3593C72.4757 31.1344 72.7006 30.6846 72.7006 30.0349V19.3647C72.7006 18.74 72.4757 18.2902 72.0259 18.0903C71.776 17.9653 71.3012 17.8654 70.6266 17.8404V17.2656H78.9228V17.8404C77.9483 17.8654 77.2986 17.9903 76.9737 18.2152C76.6488 18.4401 76.4989 18.9649 76.4989 19.8395V30.2598C76.4989 30.7596 76.6239 31.0594 76.8987 31.2344C77.1736 31.3843 77.6984 31.4592 78.498 31.4592C79.9224 31.4592 81.1218 31.1594 82.0964 30.5846C83.0709 30.0099 83.8956 28.8604 84.5953 27.1612H85.295L84.3204 32.1589H70.6016V31.5842H70.6266Z" fill="#111111"/>
<path d="M87.2696 17.49C87.6194 17.1652 88.0692 16.9902 88.569 16.9902C89.0688 16.9902 89.4936 17.1652 89.8684 17.49C90.2183 17.8149 90.4182 18.2397 90.4182 18.7145C90.4182 19.1892 90.2433 19.5891 89.8684 19.9139C89.5186 20.2388 89.0938 20.4137 88.569 20.4137C88.0692 20.4137 87.6194 20.2388 87.2696 19.9139C86.9198 19.5891 86.7448 19.1892 86.7448 18.7145C86.7448 18.2147 86.9198 17.8149 87.2696 17.49ZM85.7203 31.6336C86.1201 31.5837 86.42 31.4837 86.5699 31.3588C86.7948 31.1589 86.9198 30.809 86.9198 30.3092V23.8372C86.9198 23.3874 86.8448 23.0875 86.6699 22.9376C86.5199 22.7876 86.1951 22.6627 85.7203 22.5877V22.038H90.2433V30.4092C90.2433 30.884 90.3182 31.2088 90.4682 31.3338C90.6181 31.4587 90.918 31.5837 91.3428 31.6586V32.2084H85.6953V31.6336H85.7203Z" fill="#111111"/>
<path d="M92.4414 31.6352C92.9412 31.6102 93.291 31.5103 93.4909 31.3353C93.7158 31.1604 93.8158 30.8356 93.8158 30.3108V23.164H92.4414V22.1894H93.8158V21.3648C93.8158 20.3403 93.9907 19.4907 94.3405 18.816C94.9903 17.5915 96.2147 16.9668 97.9889 16.9668C98.9385 16.9668 99.7381 17.1667 100.388 17.5665C101.038 17.9663 101.362 18.4911 101.362 19.1408C101.362 19.5656 101.212 19.8905 100.963 20.1404C100.688 20.3903 100.313 20.5152 99.8631 20.5152C99.4882 20.5152 99.1634 20.3903 98.8885 20.1654C98.6136 19.9405 98.4887 19.6656 98.4887 19.3407C98.4887 19.0908 98.5637 18.841 98.7386 18.5661C98.9135 18.2912 98.9885 18.1413 98.9885 18.0663C98.9885 17.8914 98.9135 17.7664 98.7886 17.7165C98.6636 17.6665 98.4887 17.6415 98.3387 17.6415C97.9389 17.6415 97.6641 17.7414 97.4392 17.9663C97.2392 18.1663 97.1393 18.6161 97.1393 19.3157V22.1645H99.2134V23.139H97.1393V29.886C97.1393 30.6356 97.2642 31.1104 97.4891 31.2604C97.714 31.4353 98.2388 31.5352 99.0634 31.5852V32.135H92.4414V31.6352Z" fill="#111111"/>
</svg>
