<svg width="112" height="50" viewBox="0 0 112 50" fill="none" xmlns="http://www.w3.org/2000/svg">
<path d="M14.4456 32.5334V17.168H17.9599V32.5334H14.4456ZM82.7599 26.7927C82.7599 23.0794 79.8671 20.7746 76.4814 20.7746C73.0742 20.7746 70.2028 23.1007 70.2028 26.7927C70.2028 30.506 73.0957 32.8321 76.4814 32.8321C79.8671 32.8321 82.7599 30.4846 82.7599 26.7927ZM79.2885 26.7927C79.2885 28.7347 77.9814 29.8231 76.4599 29.8231C74.9385 29.8231 73.6314 28.7347 73.6314 26.7927C73.6314 24.8293 74.9385 23.7836 76.4599 23.7836C77.9814 23.7836 79.2885 24.8293 79.2885 26.7927ZM13.0314 28.1158C13.0314 26.3872 12.1314 25.0641 10.5242 24.4665C12.0456 23.6342 12.5814 22.5459 12.5814 21.2654C12.5814 19.0246 10.9528 17.168 7.30993 17.1893H0.324219V32.5547H7.60993C11.2742 32.5334 13.0314 30.7194 13.0314 28.1158ZM8.85279 21.7136C8.85279 22.7593 8.1885 23.3568 6.90279 23.3568H3.9885V20.1557H6.90279C8.08136 20.1557 8.85279 20.6679 8.85279 21.7136ZM9.17422 27.8811C9.17422 28.8841 8.46708 29.5456 7.15993 29.5456H3.9885V26.2165H7.15993C8.42422 26.2165 9.17422 26.8567 9.17422 27.8811ZM43.6314 23.9117C42.6671 21.9056 40.8671 20.7959 38.1456 20.7959C34.9314 20.7959 32.0599 22.8019 32.0599 26.7927C32.0599 30.6767 34.5885 32.8321 38.1028 32.8321C40.5671 32.8321 42.6456 31.8505 43.6314 29.7377L40.8028 28.2865C40.2885 29.2255 39.4956 29.8231 38.2314 29.8231C36.6028 29.8231 35.5528 28.6707 35.5528 26.7927C35.5528 24.9147 36.7528 23.7836 38.2099 23.7836C39.3456 23.7836 40.2028 24.2958 40.7385 25.4055L43.6314 23.9117ZM95.4242 23.9117C94.4599 21.9056 92.6599 20.7959 89.9385 20.7959C86.7242 20.7959 83.8528 22.8019 83.8528 26.7927C83.8528 30.6767 86.3814 32.8321 89.8957 32.8321C92.3599 32.8321 94.4385 31.8505 95.4242 29.7377L92.5956 28.2865C92.0814 29.2255 91.2885 29.8231 90.0242 29.8231C88.3957 29.8231 87.3457 28.6707 87.3457 26.7927C87.3457 24.9147 88.5456 23.7836 90.0028 23.7836C91.1385 23.7836 91.9957 24.2958 92.5314 25.4055L95.4242 23.9117ZM65.9599 32.5334L63.0242 27.3689H60.7742V32.5334H57.1528V17.168H63.6885C67.2242 17.168 69.6885 18.8539 69.6885 22.1617C69.6885 24.2745 68.6385 25.7683 66.7742 26.686L70.1599 32.5334H65.9599ZM60.7957 24.3171H63.4956C65.1671 24.3171 65.9814 23.3781 65.9814 22.2684C65.9814 20.9453 65.2099 20.2197 63.4956 20.2197H60.7957V24.3171ZM31.4814 32.3413V29.9298C31.3314 29.9725 31.1171 30.0151 30.8814 30.0151C30.4314 30.0151 30.1956 29.7804 30.1956 29.3749V25.3842C30.1956 22.3965 28.1814 20.8172 24.8599 20.8172C22.6956 20.8172 20.8528 21.6069 19.6956 22.6312L21.6456 24.808C22.4171 24.1251 23.4456 23.6983 24.4528 23.6983C25.9956 23.6983 26.7242 24.4665 26.7242 25.7256V26.0884C25.9956 25.9177 25.0742 25.747 23.9599 25.747C21.1528 25.747 19.3314 27.0914 19.3314 29.3109C19.3314 31.5944 20.8528 32.7894 23.2099 32.7894C24.8171 32.7894 26.2528 32.1279 27.0028 31.2742C27.4528 32.4053 28.4385 32.7041 29.4028 32.7041C30.0671 32.7254 30.8385 32.6187 31.4814 32.3413ZM26.7456 28.7347C26.7456 29.7804 25.7385 30.4633 24.5814 30.4633C23.4885 30.4633 22.9528 29.9084 22.9528 29.1402C22.9528 28.3292 23.5528 27.7317 24.7742 27.7317C25.5242 27.7317 26.1885 27.8597 26.7456 27.9878V28.7347ZM107.981 32.5334L103.846 25.3842L107.724 21.18H103.824L99.7314 25.7043V17.1893H96.2385V32.5547H99.7314V29.7804L101.403 28.0091L104.017 32.5547H107.981V32.5334ZM56.2314 32.5334L52.0957 25.3842L55.9742 21.18H52.0314L47.9814 25.7043V17.1893H44.4885V32.5547H47.9814V29.7804L49.6528 28.0091L52.2671 32.5547H56.2314V32.5334ZM110.124 30.3993C110.853 30.3993 111.281 30.8474 111.281 31.5303C111.281 32.2132 110.853 32.6614 110.124 32.6614C109.396 32.6614 108.967 32.2132 108.967 31.5303C108.967 30.8474 109.396 30.3993 110.124 30.3993ZM110.124 32.512C110.703 32.512 111.089 32.1706 111.089 31.5303C111.089 30.8901 110.681 30.5487 110.124 30.5487C109.546 30.5487 109.16 30.8901 109.16 31.5303C109.139 32.1919 109.546 32.512 110.124 32.512ZM109.674 30.9541H110.146C110.424 30.9541 110.574 31.1035 110.574 31.3169C110.574 31.509 110.489 31.6157 110.339 31.6797L110.553 32.0852H110.339L110.146 31.7224H109.889V32.0852H109.674V30.9541ZM109.889 31.1249V31.5303H110.124C110.274 31.5303 110.36 31.4877 110.36 31.3383C110.36 31.2102 110.296 31.1462 110.146 31.1462H109.889V31.1249Z" fill="#111111"/>
</svg>
