<svg width="92" height="50" viewBox="0 0 92 50" fill="none" xmlns="http://www.w3.org/2000/svg">
<path d="M31.2806 19.4036V25.3199C31.2806 28.6774 29.0719 30.9488 25.0404 30.9488C21.009 30.9488 18.8003 28.6774 18.8003 25.3199V19.4036H21.3404V25.1297C21.3404 27.3694 22.6429 28.7112 25.0404 28.7112C27.4379 28.7112 28.7405 27.3694 28.7405 25.1297V19.4036H31.2806ZM35.3582 19.4036L39.5532 28.0667L43.7294 19.4036H46.4751L40.8705 30.6022H38.1835L32.5789 19.4036H35.3582ZM46.8841 25.0008C46.8841 21.2588 49.6109 19.0508 53.9486 19.0508C58.2863 19.0508 61.0131 21.2588 61.0131 25.0008C61.0131 28.7429 58.2863 30.9509 53.9486 30.9509C49.6109 30.9509 46.8841 28.745 46.8841 25.0008ZM58.4205 25.0008C58.4205 22.6026 56.69 21.2588 53.9423 21.2588C51.1945 21.2588 49.4641 22.6026 49.4641 25.0008C49.4641 27.399 51.1798 28.745 53.9423 28.745C56.7047 28.745 58.4268 27.4011 58.4268 25.0008H58.4205ZM76.411 25.0008C76.411 28.4872 73.7262 30.6001 69.5353 30.6001H63.635V19.4015H69.5416C73.7325 19.4036 76.4173 21.5145 76.4173 25.0008H76.411ZM73.8227 25.0008C73.8227 22.6977 72.0125 21.5779 69.3444 21.5779H66.1751V28.4238H69.3507C72.0188 28.4238 73.829 27.3039 73.829 25.0008H73.8227ZM87.3497 28.2315H80.6376L79.4462 30.6001H76.7341L82.6239 19.4015H85.4031L91.293 30.6001H88.5473L87.3497 28.2315ZM86.2862 26.1524L83.9789 21.5948L81.6716 26.1524H86.2862ZM8.35665 27.6779C9.45576 26.3552 10.4542 25.0769 11.3603 23.919C12.6188 22.3237 13.7746 21.5948 15.8721 21.5948H17.0404V19.4184H15.2575C12.2643 19.4184 10.6765 20.7094 9.21664 22.5266C8.32728 23.6338 7.20301 25.0494 6.28009 26.182C5.21245 27.5237 4.12803 28.4323 1.85221 28.4386H0.679688V30.6149H2.47308C4.94397 30.6001 6.60102 29.7909 8.35665 27.6779Z" fill="#111111"/>
</svg>
