<svg width="77" height="12" viewBox="0 0 77 12" fill="none" xmlns="http://www.w3.org/2000/svg">
<path d="M0.0400001 8.72275L-0.00799996 8.54675H1.416L1.464 8.65875C1.832 9.79475 3.56 10.1307 4.776 10.1307C6.184 10.1307 7.992 9.66675 7.992 8.19475C7.992 6.72275 6.072 6.45075 4.712 6.45075C2.648 6.45075 0.2 6.17875 0.2 3.58675C0.2 1.20275 2.296 0.386749 4.424 0.386749C6.232 0.386749 8.776 0.978749 9.128 3.07475L9.176 3.26675H7.752L7.704 3.15475C7.368 2.03475 5.736 1.68275 4.552 1.68275C3.224 1.68275 1.608 2.13075 1.608 3.49075C1.608 4.86675 3.304 5.13875 4.616 5.13875C6.744 5.13875 9.4 5.41075 9.4 8.11475C9.4 10.6107 7.16 11.4588 4.936 11.4588C3.128 11.4588 0.44 10.8507 0.0400001 8.72275ZM19.8545 1.92275H15.6465V0.594749H25.5025V1.92275H21.2625V11.2188H19.8545V1.92275ZM31.4358 5.90675C31.4358 3.09075 33.2758 0.386749 36.5718 0.386749C39.8678 0.386749 41.7078 3.07475 41.7078 5.90675C41.7078 8.73875 39.8678 11.4588 36.5718 11.4588C33.2758 11.4588 31.4358 8.72275 31.4358 5.90675ZM32.9718 5.89075C32.9718 7.95475 34.2358 10.0187 36.5718 10.0187C38.8918 10.0187 40.2038 7.97075 40.2038 5.90675C40.2038 3.84275 38.8918 1.77875 36.5718 1.77875C34.2358 1.77875 32.9718 3.84275 32.9718 5.89075ZM48.9818 11.2188V0.594749H56.2138C58.1018 0.594749 59.0298 2.01875 59.0298 3.60275C59.0298 5.01075 58.2938 6.45075 56.5658 6.54675C56.4058 6.54675 56.2458 6.56275 56.0858 6.56275L58.7578 11.2188H57.1738L54.5338 6.56275H50.3898V11.2188H48.9818ZM50.3898 5.26675H56.2138C57.1898 5.26675 57.6058 4.53075 57.6058 3.61875C57.6058 2.73875 57.1738 1.92275 56.2138 1.92275H50.3898V5.26675ZM66.3911 0.594749H67.7511L71.3351 5.37875L74.8391 0.594749H76.2311V11.2188H74.8231V2.77075L71.8151 6.83475H70.7751L67.7991 2.78675V11.2188H66.3911V0.594749Z" fill="#FFBF00"/>
</svg>
