<svg width="64" height="64" viewBox="0 0 64 64" fill="none" xmlns="http://www.w3.org/2000/svg">
<rect width="64" height="64" fill="white" fill-opacity="0.01" style="mix-blend-mode:multiply"/>
<path d="M61.8792 31.32C59.5268 25.2353 55.4431 19.9732 50.1327 16.1842C44.8224 12.3951 38.5181 10.2451 31.9991 10C25.4802 10.2451 19.1759 12.3951 13.8656 16.1842C8.55518 19.9732 4.47147 25.2353 2.11915 31.32C1.96028 31.7594 1.96028 32.2406 2.11915 32.68C4.47147 38.7647 8.55518 44.0268 13.8656 47.8158C19.1759 51.6049 25.4802 53.7549 31.9991 54C38.5181 53.7549 44.8224 51.6049 50.1327 47.8158C55.4431 44.0268 59.5268 38.7647 61.8792 32.68C62.038 32.2406 62.038 31.7594 61.8792 31.32ZM31.9991 50C21.3991 50 10.1991 42.14 6.13915 32C10.1991 21.86 21.3991 14 31.9991 14C42.5992 14 53.7991 21.86 57.8591 32C53.7991 42.14 42.5992 50 31.9991 50Z" fill="white"/>
<path d="M31.9991 20C29.6258 20 27.3057 20.7038 25.3323 22.0224C23.3589 23.3409 21.8208 25.2151 20.9126 27.4078C20.0043 29.6005 19.7667 32.0133 20.2297 34.3411C20.6927 36.6689 21.8356 38.8071 23.5139 40.4853C25.1921 42.1635 27.3303 43.3064 29.6581 43.7694C31.9858 44.2324 34.3986 43.9948 36.5914 43.0866C38.7841 42.1783 40.6582 40.6402 41.9768 38.6668C43.2954 36.6935 43.9991 34.3734 43.9991 32C43.9991 28.8174 42.7349 25.7652 40.4844 23.5147C38.234 21.2643 35.1817 20 31.9991 20ZM31.9991 40C30.4169 40 28.8702 39.5308 27.5546 38.6518C26.239 37.7727 25.2136 36.5233 24.6081 35.0615C24.0026 33.5997 23.8442 31.9911 24.1529 30.4393C24.4615 28.8874 25.2235 27.462 26.3423 26.3431C27.4611 25.2243 28.8866 24.4624 30.4384 24.1537C31.9903 23.845 33.5988 24.0035 35.0606 24.609C36.5224 25.2145 37.7719 26.2398 38.6509 27.5554C39.53 28.871 39.9991 30.4177 39.9991 32C39.9991 34.1217 39.1563 36.1566 37.656 37.6569C36.1557 39.1571 34.1209 40 31.9991 40Z" fill="white"/>
</svg>
