<svg width="1215" height="687" viewBox="0 0 1215 687" fill="none" xmlns="http://www.w3.org/2000/svg">
<rect y="0.289062" width="1214.76" height="685.885" fill="#F1F1F1"/>
<path d="M61.6377 351.416C61.6377 353.348 63.2043 354.915 65.1367 354.915C67.0692 354.915 68.6357 353.348 68.6357 351.416C68.6357 349.484 67.0692 347.917 65.1367 347.917C63.2043 347.917 61.6377 349.484 61.6377 351.416ZM65.1367 351.416L65.1367 352.072L456.75 352.072L456.75 351.416L456.75 350.76L65.1367 350.76L65.1367 351.416Z" fill="#545454"/>
<path d="M1147.87 351.88C1148.13 351.624 1148.13 351.208 1147.87 350.952L1143.7 346.777C1143.44 346.521 1143.02 346.521 1142.77 346.777C1142.51 347.033 1142.51 347.449 1142.77 347.705L1146.48 351.416L1142.77 355.127C1142.51 355.384 1142.51 355.799 1142.77 356.055C1143.02 356.311 1143.44 356.311 1143.7 356.055L1147.87 351.88ZM752.998 351.416V352.072H1147.41V351.416V350.76H752.998V351.416Z" fill="#545454"/>
<path d="M541.153 131.309C540.976 130.94 540.533 130.785 540.165 130.964C510.182 145.525 485.979 169.777 471.482 199.807C456.877 230.059 452.989 264.377 460.455 297.13C467.922 329.882 486.301 359.124 512.575 380.057C538.849 400.989 571.458 412.369 605.051 412.328C638.644 412.288 671.226 400.83 697.45 379.834C723.674 358.839 741.982 329.553 749.37 296.782C756.758 264.012 752.787 229.703 738.11 199.486C723.54 169.491 699.279 145.297 669.261 130.808C668.893 130.631 668.45 130.787 668.274 131.157C668.098 131.526 668.255 131.968 668.624 132.146C698.338 146.49 722.354 170.441 736.777 200.133C751.308 230.048 755.239 264.014 747.925 296.457C740.611 328.899 722.486 357.893 696.524 378.678C670.563 399.464 638.307 410.807 605.05 410.847C571.792 410.887 539.509 399.621 513.498 378.898C487.487 358.175 469.292 329.226 461.9 296.8C454.507 264.375 458.357 230.4 472.816 200.451C487.167 170.723 511.126 146.715 540.805 132.299C541.173 132.121 541.33 131.678 541.153 131.309Z" fill="#545454"/>
<path d="M668.595 563.624C668.772 563.993 669.215 564.149 669.583 563.97C699.566 549.409 723.769 525.157 738.266 495.127C752.871 464.875 756.76 430.557 749.293 397.804C741.826 365.051 723.447 335.809 697.173 314.877C670.899 293.944 638.29 282.565 604.697 282.605C571.104 282.646 538.522 294.104 512.298 315.099C486.075 336.095 467.766 365.381 460.378 398.151C452.99 430.922 456.961 465.231 471.638 495.448C486.208 525.442 510.469 549.636 540.487 564.125C540.855 564.303 541.298 564.146 541.474 563.777C541.65 563.408 541.493 562.966 541.124 562.788C511.41 548.444 487.394 524.493 472.971 494.8C458.44 464.886 454.509 430.92 461.823 398.477C469.138 366.034 487.263 337.041 513.224 316.255C539.186 295.47 571.441 284.126 604.699 284.086C637.956 284.046 670.239 295.312 696.25 316.035C722.261 336.759 740.456 365.708 747.848 398.133C755.241 430.559 751.391 464.533 736.932 494.483C722.581 524.21 698.623 548.219 668.943 562.634C668.575 562.813 668.418 563.255 668.595 563.624Z" fill="#545454"/>
<path d="M550.716 131.924H548.956V120.484H550.716V125.268H556.332V120.484H558.108V131.924H556.332V126.788H550.716V131.924ZM562.762 131.924H561.002V120.484H562.762V131.924ZM570.282 132.148C566.986 132.148 565.13 129.652 565.13 126.196C565.13 122.756 567.226 120.26 570.49 120.26C573.45 120.26 575.018 121.844 575.386 124.02H573.546C573.242 122.58 572.17 121.78 570.474 121.78C567.946 121.78 566.97 124.052 566.97 126.196C566.97 128.356 567.706 130.628 570.378 130.628C572.266 130.628 573.77 129.316 573.786 127.412H570.41V125.94H575.578V131.924H574.362L573.93 130.34H573.898C573.098 131.508 572.026 132.148 570.282 132.148ZM579.87 131.924H578.11V120.484H579.87V125.268H585.486V120.484H587.262V131.924H585.486V126.788H579.87V131.924ZM595.9 131.924H594.14V120.484H602.076V122.004H595.9V125.444H600.892V126.964H595.9V131.924ZM605.884 131.924H604.124V120.484H605.884V131.924ZM613.179 131.924H608.795V120.484H613.147C616.315 120.484 618.235 122.532 618.235 126.212C618.235 129.892 616.347 131.924 613.179 131.924ZM610.555 130.404H613.067C615.723 130.404 616.411 128.42 616.411 126.212C616.411 124.004 615.723 122.004 613.067 122.004H610.555V130.404ZM628.879 131.924H620.623V120.484H628.719V122.004H622.383V125.252H627.935V126.772H622.383V130.404H628.879V131.924ZM638.721 131.924H631.169V120.484H632.929V130.404H638.721V131.924ZM642.491 131.924H640.731V120.484H642.491V131.924ZM649.978 131.924H648.202V122.004H644.506V120.484H653.674V122.004H649.978V131.924ZM660.531 131.924H658.755V127.348L654.659 120.484H656.563L659.635 125.956H659.667L662.739 120.484H664.627L660.531 127.348V131.924Z" fill="#212020"/>
<path d="M553.357 575.048C550.221 575.048 548.893 573.4 548.893 570.936V563.384H550.653V570.936C550.653 572.712 551.549 573.528 553.357 573.528C555.181 573.528 556.061 572.712 556.061 570.936V563.384H557.837V570.936C557.837 573.4 556.509 575.048 553.357 575.048ZM564.979 575.048C562.083 575.048 560.051 573.544 559.923 570.968H561.747C561.875 572.504 562.787 573.544 564.931 573.544C566.771 573.544 567.331 572.744 567.331 571.704C567.331 570.248 566.211 570.04 564.131 569.512C562.339 569.032 560.371 568.456 560.371 566.28C560.371 564.296 561.907 563.16 564.371 563.16C566.979 563.16 568.675 564.488 568.851 566.792H567.027C566.835 565.416 566.051 564.664 564.387 564.664C562.947 564.664 562.211 565.192 562.211 566.184C562.211 567.464 563.411 567.736 564.883 568.104C567.091 568.664 569.171 569.192 569.171 571.608C569.171 573.576 567.843 575.048 564.979 575.048ZM579.681 574.824H571.425V563.384H579.521V564.904H573.185V568.152H578.737V569.672H573.185V573.304H579.681V574.824ZM583.731 574.824H581.971V563.384H586.739C589.267 563.384 590.627 564.568 590.627 566.68C590.627 568.136 589.747 569.192 588.483 569.48V569.512C591.139 570.008 590.163 574.52 590.787 574.712V574.824H588.899C588.387 574.344 589.475 570.344 586.675 570.344H583.731V574.824ZM583.731 568.824H586.355C587.971 568.824 588.851 568.12 588.851 566.808C588.851 565.576 588.147 564.904 586.387 564.904H583.731V568.824ZM601.218 574.824H599.442V564.904H595.746V563.384H604.914V564.904H601.218V574.824ZM615.178 574.824H606.922V563.384H615.018V564.904H608.682V568.152H614.234V569.672H608.682V573.304H615.178V574.824ZM621.773 575.048C618.877 575.048 616.845 573.544 616.717 570.968H618.541C618.669 572.504 619.581 573.544 621.725 573.544C623.565 573.544 624.125 572.744 624.125 571.704C624.125 570.248 623.005 570.04 620.925 569.512C619.133 569.032 617.165 568.456 617.165 566.28C617.165 564.296 618.701 563.16 621.165 563.16C623.773 563.16 625.469 564.488 625.645 566.792H623.821C623.629 565.416 622.845 564.664 621.181 564.664C619.741 564.664 619.005 565.192 619.005 566.184C619.005 567.464 620.205 567.736 621.677 568.104C623.885 568.664 625.965 569.192 625.965 571.608C625.965 573.576 624.637 575.048 621.773 575.048ZM632.294 574.824H630.518V564.904H626.822V563.384H635.99V564.904H632.294V574.824ZM639.759 574.824H637.999V563.384H639.759V574.824ZM644.43 574.824H642.67V563.384H644.686L649.998 572.184H650.03V563.384H651.806V574.824H649.79L644.462 566.024H644.43V574.824ZM659.324 575.048C656.028 575.048 654.172 572.552 654.172 569.096C654.172 565.656 656.268 563.16 659.532 563.16C662.492 563.16 664.06 564.744 664.428 566.92H662.588C662.284 565.48 661.212 564.68 659.516 564.68C656.988 564.68 656.012 566.952 656.012 569.096C656.012 571.256 656.748 573.528 659.42 573.528C661.308 573.528 662.812 572.216 662.828 570.312H659.452V568.84H664.62V574.824H663.404L662.972 573.24H662.94C662.14 574.408 661.068 575.048 659.324 575.048Z" fill="#212020"/>
<path d="M531.292 352.387H529.388L526.54 340.947H528.38L530.396 349.955H530.428L532.796 340.947H534.652L537.036 349.955H537.068L539.084 340.947H540.924L538.06 352.387H536.172L533.74 343.187H533.708L531.292 352.387ZM551.176 352.387H542.92V340.947H551.016V342.467H544.68V345.715H550.232V347.235H544.68V350.867H551.176V352.387ZM561.722 352.387H553.466V340.947H561.562V342.467H555.226V345.715H560.778V347.235H555.226V350.867H561.722V352.387ZM573.533 352.387H571.469L567.597 346.883L565.773 348.819V352.387H564.013V340.947H565.773V346.739L571.197 340.947H573.165L568.685 345.715L573.533 352.387ZM582.627 352.387H575.075V340.947H576.835V350.867H582.627V352.387ZM587.563 352.387H585.787V347.811L581.691 340.947H583.595L586.667 346.419H586.699L589.771 340.947H591.659L587.563 347.811V352.387ZM598.77 352.387H597.01V340.947H598.77V352.387ZM606.257 352.387H604.481V342.467H600.785V340.947H609.953V342.467H606.257V352.387ZM620.218 352.387H611.962V340.947H620.058V342.467H613.722V345.715H619.274V347.235H613.722V350.867H620.218V352.387ZM624.268 352.387H622.508V340.947H627.276C629.804 340.947 631.164 342.131 631.164 344.243C631.164 345.699 630.284 346.755 629.02 347.043V347.075C631.676 347.571 630.7 352.083 631.324 352.275V352.387H629.436C628.924 351.907 630.012 347.907 627.212 347.907H624.268V352.387ZM624.268 346.387H626.892C628.508 346.387 629.388 345.683 629.388 344.371C629.388 343.139 628.684 342.467 626.924 342.467H624.268V346.387ZM634.432 352.387H632.576L636.832 340.947H638.736L643.024 352.387H641.104L640.16 349.635H635.376L634.432 352.387ZM637.76 342.579L635.904 348.147H639.664L637.792 342.579H637.76ZM647.942 352.387H646.166V342.467H642.47V340.947H651.638V342.467H647.942V352.387ZM655.407 352.387H653.647V340.947H655.407V352.387ZM663.374 352.611C659.95 352.611 657.758 350.099 657.758 346.659C657.758 343.219 659.95 340.723 663.374 340.723C666.798 340.723 668.99 343.219 668.99 346.659C668.99 350.099 666.798 352.611 663.374 352.611ZM663.374 351.091C666.078 351.091 667.15 349.011 667.15 346.659C667.15 344.307 666.078 342.243 663.374 342.243C660.67 342.243 659.598 344.307 659.598 346.659C659.598 349.011 660.67 351.091 663.374 351.091ZM673.109 352.387H671.349V340.947H673.365L678.677 349.747H678.709V340.947H680.485V352.387H678.469L673.141 343.587H673.109V352.387Z" fill="#212020"/>
<path d="M252.925 330.832H248.541V319.392H252.893C256.061 319.392 257.981 321.44 257.981 325.12C257.981 328.8 256.093 330.832 252.925 330.832ZM250.301 329.312H252.813C255.469 329.312 256.157 327.328 256.157 325.12C256.157 322.912 255.469 320.912 252.813 320.912H250.301V329.312ZM262.128 330.832H260.368V319.392H262.128V330.832ZM269.343 331.056C266.447 331.056 264.415 329.552 264.287 326.976H266.111C266.239 328.512 267.151 329.552 269.295 329.552C271.135 329.552 271.695 328.752 271.695 327.712C271.695 326.256 270.575 326.048 268.495 325.52C266.703 325.04 264.735 324.464 264.735 322.288C264.735 320.304 266.271 319.168 268.735 319.168C271.343 319.168 273.039 320.496 273.215 322.8H271.391C271.199 321.424 270.415 320.672 268.751 320.672C267.311 320.672 266.575 321.2 266.575 322.192C266.575 323.472 267.775 323.744 269.247 324.112C271.455 324.672 273.535 325.2 273.535 327.616C273.535 329.584 272.207 331.056 269.343 331.056ZM280.573 331.056C277.325 331.056 275.229 328.56 275.229 325.12C275.229 321.664 277.341 319.168 280.589 319.168C283.453 319.168 285.229 320.992 285.501 323.28H283.661C283.453 322.16 282.749 320.688 280.557 320.688C278.029 320.688 277.069 322.832 277.069 325.104C277.069 327.392 278.029 329.536 280.557 329.536C282.765 329.536 283.549 328.064 283.661 326.672H285.501C285.245 329.216 283.453 331.056 280.573 331.056ZM292.782 331.056C289.358 331.056 287.166 328.544 287.166 325.104C287.166 321.664 289.358 319.168 292.782 319.168C296.206 319.168 298.398 321.664 298.398 325.104C298.398 328.544 296.206 331.056 292.782 331.056ZM292.782 329.536C295.486 329.536 296.558 327.456 296.558 325.104C296.558 322.752 295.486 320.688 292.782 320.688C290.078 320.688 289.006 322.752 289.006 325.104C289.006 327.456 290.078 329.536 292.782 329.536ZM305.262 330.832H303.358L299.326 319.392H301.262L304.302 328.976H304.318L307.342 319.392H309.198L305.262 330.832ZM319.387 330.832H311.131V319.392H319.227V320.912H312.891V324.16H318.443V325.68H312.891V329.312H319.387V330.832ZM323.437 330.832H321.677V319.392H326.445C328.973 319.392 330.333 320.576 330.333 322.688C330.333 324.144 329.453 325.2 328.189 325.488V325.52C330.845 326.016 329.869 330.528 330.493 330.72V330.832H328.605C328.093 330.352 329.181 326.352 326.381 326.352H323.437V330.832ZM323.437 324.832H326.061C327.677 324.832 328.557 324.128 328.557 322.816C328.557 321.584 327.853 320.912 326.093 320.912H323.437V324.832ZM337.196 330.832H335.42V326.256L331.324 319.392H333.228L336.3 324.864H336.332L339.404 319.392H341.292L337.196 326.256V330.832ZM353.732 328.672L355.54 330.832H353.636L352.804 329.808C351.988 330.56 350.916 331.056 349.524 331.056C347.252 331.056 345.972 329.76 345.972 328.048C345.972 326.32 347.284 325.424 348.596 324.672C347.812 323.696 347.268 322.912 347.268 321.872C347.268 320.512 348.228 319.168 350.132 319.168C351.956 319.152 352.98 320.4 352.98 321.856C352.98 323.232 352.068 323.968 350.58 324.864L352.74 327.456C353.076 326.784 353.284 326 353.412 325.232H354.916C354.756 326.384 354.388 327.616 353.732 328.672ZM350.132 320.56C349.268 320.56 348.804 321.2 348.804 321.888C348.804 322.56 349.236 323.216 349.828 323.968C350.9 323.328 351.444 322.768 351.444 321.968C351.444 321.184 350.964 320.56 350.132 320.56ZM349.652 329.568C350.58 329.568 351.3 329.216 351.86 328.672L349.332 325.584C348.26 326.24 347.588 326.912 347.588 327.84C347.588 328.848 348.324 329.568 349.652 329.568ZM365.511 331.056C362.375 331.056 361.047 329.408 361.047 326.944V319.392H362.807V326.944C362.807 328.72 363.703 329.536 365.511 329.536C367.335 329.536 368.215 328.72 368.215 326.944V319.392H369.991V326.944C369.991 329.408 368.663 331.056 365.511 331.056ZM373.678 330.832H371.614L375.486 324.992L371.886 319.392H373.838L376.494 323.712H376.51L379.182 319.392H381.118L377.518 324.96L381.31 330.832H379.262L376.462 326.272H376.446L373.678 330.832Z" fill="#212020"/>
<path d="M958.795 330.832H957.035V319.392H958.795V324.176H964.411V319.392H966.187V330.832H964.411V325.696H958.795V330.832ZM969.866 330.832H968.01L972.266 319.392H974.17L978.458 330.832H976.538L975.594 328.08H970.81L969.866 330.832ZM973.194 321.024L971.338 326.592H975.098L973.226 321.024H973.194ZM982.044 330.832H980.284V319.392H982.3L987.612 328.192H987.644V319.392H989.42V330.832H987.404L982.076 322.032H982.044V330.832ZM996.714 330.832H992.33V319.392H996.682C999.85 319.392 1001.77 321.44 1001.77 325.12C1001.77 328.8 999.882 330.832 996.714 330.832ZM994.09 329.312H996.602C999.258 329.312 999.946 327.328 999.946 325.12C999.946 322.912 999.258 320.912 996.602 320.912H994.09V329.312ZM1007.98 327.504H1003.69V326.016H1007.98V327.504ZM1015.48 331.056C1012.05 331.056 1009.86 328.544 1009.86 325.104C1009.86 321.664 1012.05 319.168 1015.48 319.168C1018.9 319.168 1021.09 321.664 1021.09 325.104C1021.09 328.544 1018.9 331.056 1015.48 331.056ZM1015.48 329.536C1018.18 329.536 1019.25 327.456 1019.25 325.104C1019.25 322.752 1018.18 320.688 1015.48 320.688C1012.77 320.688 1011.7 322.752 1011.7 325.104C1011.7 327.456 1012.77 329.536 1015.48 329.536ZM1025.21 330.832H1023.45V319.392H1031.39V320.912H1025.21V324.352H1030.21V325.872H1025.21V330.832ZM1035.2 330.832H1033.44V319.392H1041.37V320.912H1035.2V324.352H1040.19V325.872H1035.2V330.832ZM1054.07 328.672L1055.88 330.832H1053.97L1053.14 329.808C1052.33 330.56 1051.25 331.056 1049.86 331.056C1047.59 331.056 1046.31 329.76 1046.31 328.048C1046.31 326.32 1047.62 325.424 1048.93 324.672C1048.15 323.696 1047.61 322.912 1047.61 321.872C1047.61 320.512 1048.57 319.168 1050.47 319.168C1052.29 319.152 1053.32 320.4 1053.32 321.856C1053.32 323.232 1052.41 323.968 1050.92 324.864L1053.08 327.456C1053.41 326.784 1053.62 326 1053.75 325.232H1055.25C1055.09 326.384 1054.73 327.616 1054.07 328.672ZM1050.47 320.56C1049.61 320.56 1049.14 321.2 1049.14 321.888C1049.14 322.56 1049.57 323.216 1050.17 323.968C1051.24 323.328 1051.78 322.768 1051.78 321.968C1051.78 321.184 1051.3 320.56 1050.47 320.56ZM1049.99 329.568C1050.92 329.568 1051.64 329.216 1052.2 328.672L1049.67 325.584C1048.6 326.24 1047.93 326.912 1047.93 327.84C1047.93 328.848 1048.66 329.568 1049.99 329.568ZM1065.77 331.056C1062.87 331.056 1060.84 329.552 1060.71 326.976H1062.54C1062.67 328.512 1063.58 329.552 1065.72 329.552C1067.56 329.552 1068.12 328.752 1068.12 327.712C1068.12 326.256 1067 326.048 1064.92 325.52C1063.13 325.04 1061.16 324.464 1061.16 322.288C1061.16 320.304 1062.7 319.168 1065.16 319.168C1067.77 319.168 1069.47 320.496 1069.64 322.8H1067.82C1067.63 321.424 1066.84 320.672 1065.18 320.672C1063.74 320.672 1063 321.2 1063 322.192C1063 323.472 1064.2 323.744 1065.67 324.112C1067.88 324.672 1069.96 325.2 1069.96 327.616C1069.96 329.584 1068.63 331.056 1065.77 331.056ZM1076.6 331.056C1073.46 331.056 1072.14 329.408 1072.14 326.944V319.392H1073.9V326.944C1073.9 328.72 1074.79 329.536 1076.6 329.536C1078.42 329.536 1079.3 328.72 1079.3 326.944V319.392H1081.08V326.944C1081.08 329.408 1079.75 331.056 1076.6 331.056ZM1085.68 330.832H1083.92V319.392H1088.69C1090.85 319.392 1092.43 320.4 1092.43 322.8C1092.43 325.2 1090.85 326.192 1088.69 326.192H1085.68V330.832ZM1085.68 324.672H1088.61C1089.93 324.672 1090.61 324.08 1090.61 322.8C1090.61 321.504 1089.93 320.912 1088.61 320.912H1085.68V324.672ZM1096.3 330.832H1094.54V319.392H1099.31C1101.47 319.392 1103.05 320.4 1103.05 322.8C1103.05 325.2 1101.47 326.192 1099.31 326.192H1096.3V330.832ZM1096.3 324.672H1099.23C1100.56 324.672 1101.23 324.08 1101.23 322.8C1101.23 321.504 1100.56 320.912 1099.23 320.912H1096.3V324.672ZM1110.16 331.056C1106.74 331.056 1104.54 328.544 1104.54 325.104C1104.54 321.664 1106.74 319.168 1110.16 319.168C1113.58 319.168 1115.78 321.664 1115.78 325.104C1115.78 328.544 1113.58 331.056 1110.16 331.056ZM1110.16 329.536C1112.86 329.536 1113.94 327.456 1113.94 325.104C1113.94 322.752 1112.86 320.688 1110.16 320.688C1107.46 320.688 1106.38 322.752 1106.38 325.104C1106.38 327.456 1107.46 329.536 1110.16 329.536ZM1119.89 330.832H1118.13V319.392H1122.9C1125.43 319.392 1126.79 320.576 1126.79 322.688C1126.79 324.144 1125.91 325.2 1124.65 325.488V325.52C1127.3 326.016 1126.33 330.528 1126.95 330.72V330.832H1125.06C1124.55 330.352 1125.64 326.352 1122.84 326.352H1119.89V330.832ZM1119.89 324.832H1122.52C1124.13 324.832 1125.01 324.128 1125.01 322.816C1125.01 321.584 1124.31 320.912 1122.55 320.912H1119.89V324.832ZM1133.43 330.832H1131.65V320.912H1127.96V319.392H1137.12V320.912H1133.43V330.832Z" fill="#212020"/>
<path d="M80.6866 331.056C77.7906 331.056 75.7586 329.552 75.6306 326.976H77.4546C77.5826 328.512 78.4946 329.552 80.6386 329.552C82.4786 329.552 83.0386 328.752 83.0386 327.712C83.0386 326.256 81.9186 326.048 79.8386 325.52C78.0466 325.04 76.0786 324.464 76.0786 322.288C76.0786 320.304 77.6146 319.168 80.0786 319.168C82.6866 319.168 84.3826 320.496 84.5586 322.8H82.7346C82.5426 321.424 81.7586 320.672 80.0946 320.672C78.6546 320.672 77.9186 321.2 77.9186 322.192C77.9186 323.472 79.1186 323.744 80.5906 324.112C82.7986 324.672 84.8786 325.2 84.8786 327.616C84.8786 329.584 83.5506 331.056 80.6866 331.056ZM91.2079 330.832H89.4319V320.912H85.7359V319.392H94.9039V320.912H91.2079V330.832ZM98.6726 330.832H96.9126V319.392H101.681C104.209 319.392 105.569 320.576 105.569 322.688C105.569 324.144 104.689 325.2 103.425 325.488V325.52C106.081 326.016 105.105 330.528 105.729 330.72V330.832H103.841C103.329 330.352 104.417 326.352 101.617 326.352H98.6726V330.832ZM98.6726 324.832H101.297C102.913 324.832 103.793 324.128 103.793 322.816C103.793 321.584 103.089 320.912 101.329 320.912H98.6726V324.832ZM108.837 330.832H106.981L111.237 319.392H113.141L117.429 330.832H115.509L114.565 328.08H109.781L108.837 330.832ZM112.165 321.024L110.309 326.592H114.069L112.197 321.024H112.165ZM122.347 330.832H120.571V320.912H116.875V319.392H126.043V320.912H122.347V330.832ZM136.307 330.832H128.051V319.392H136.147V320.912H129.811V324.16H135.363V325.68H129.811V329.312H136.307V330.832ZM142.924 331.056C139.628 331.056 137.772 328.56 137.772 325.104C137.772 321.664 139.868 319.168 143.132 319.168C146.092 319.168 147.66 320.752 148.028 322.928H146.188C145.884 321.488 144.812 320.688 143.116 320.688C140.588 320.688 139.612 322.96 139.612 325.104C139.612 327.264 140.348 329.536 143.02 329.536C144.908 329.536 146.412 328.224 146.428 326.32H143.052V324.848H148.22V330.832H147.004L146.572 329.248H146.54C145.74 330.416 144.668 331.056 142.924 331.056ZM154.836 330.832H153.06V326.256L148.964 319.392H150.868L153.94 324.864H153.972L157.044 319.392H158.932L154.836 326.256V330.832Z" fill="#212020"/>
</svg>
